<?xml version="1.0" encoding="UTF-8" standalone="no"?>
<svg
   xmlns:dc="http://purl.org/dc/elements/1.1/"
   xmlns:cc="http://creativecommons.org/ns#"
   xmlns:rdf="http://www.w3.org/1999/02/22-rdf-syntax-ns#"
   xmlns:svg="http://www.w3.org/2000/svg"
   xmlns="http://www.w3.org/2000/svg"
   xmlns:sodipodi="http://sodipodi.sourceforge.net/DTD/sodipodi-0.dtd"
   xmlns:inkscape="http://www.inkscape.org/namespaces/inkscape"
   version="1.1"
   x="0px"
   y="0px"
   viewBox="0 0 100 75"
   xml:space="preserve"
   id="svg8"
   sodipodi:docname="Image.svg"
   inkscape:version="0.92.2 2405546, 2018-03-11"
   width="100"
   height="75"><metadata
     id="metadata14"><rdf:RDF><cc:Work
         rdf:about=""><dc:format>image/svg+xml</dc:format><dc:type
           rdf:resource="http://purl.org/dc/dcmitype/StillImage" /><dc:title></dc:title></cc:Work></rdf:RDF></metadata><defs
     id="defs12" /><sodipodi:namedview
     pagecolor="#ffffff"
     bordercolor="#666666"
     borderopacity="1"
     objecttolerance="10"
     gridtolerance="10"
     guidetolerance="10"
     inkscape:pageopacity="0"
     inkscape:pageshadow="2"
     inkscape:window-width="1916"
     inkscape:window-height="1044"
     id="namedview10"
     showgrid="false"
     inkscape:zoom="3.776"
     inkscape:cx="0.03309378"
     inkscape:cy="65.749075"
     inkscape:window-x="1920"
     inkscape:window-y="16"
     inkscape:window-maximized="0"
     inkscape:current-layer="svg8" /><path
     d="M 78,11.500003 H 22 c -1.7,0 -3,1.3 -3,3 v 45.999994 c 0,1.700001 1.3,3.000001 3,3.000001 h 56 c 1.7,0 3,-1.3 3,-3 V 14.500003 c 0,-1.7 -1.3,-3 -3,-3 z m -56,2 h 56 c 0.6,0 1,0.4 1,1 v 24.2 l -9.9,-11.2 c -0.2,-0.2 -0.4,-0.3 -0.7,-0.3 -0.3,0 -0.5,0.1 -0.7,0.3 l -13.2,12.5 -11,-9.7 c -0.3,-0.3 -0.9,-0.3 -1.2,-0.1 l -21.3,15 v -30.7 c 0,-0.6 0.4,-1 1,-1 z M 78,61.499997 H 22 c -0.6,0 -1,-0.4 -1,-1 V 47.700003 l 21.8,-15.4 19.4,17.099995 c 0.2,0.2 0.4,0.3 0.7,0.3 0.3,0 0.6,-0.100001 0.8,-0.3 0.4,-0.4 0.3,-0.999995 -0.1,-1.399995 l -7.6,-6.7 12.3,-11.7 10.7,12.1 v 18.799994 c 0,0.6 -0.4,1 -1,1 z M 69.5,24.500002 c 2.5,0 4.5,-2 4.5,-4.5 0,-2.5 -2,-4.499999 -4.5,-4.499999 -2.5,0 -4.5,1.999999 -4.5,4.499999 0,2.5 2,4.5 4.5,4.5 z m 0,-7 c 1.4,0 2.5,1.100001 2.5,2.5 0,1.4 -1.1,2.5 -2.5,2.5 -1.4,0 -2.5,-1.1 -2.5,-2.5 0,-1.399999 1.1,-2.5 2.5,-2.5 z"
     id="path2"
     inkscape:connector-curvature="0" /></svg>